{
  "accessors": [
    {
      "bufferView": 2,
      "componentType": 5126,
      "count": 65532,
      "max": [
        0.43285998702049255,
        0.850059986114502,
        1.3966699838638306
      ],
      "min": [
        -0.7364000082015991,
        -1.112339973449707,
        -0.029559999704360962
      ],
      "type": "VEC3"
    },
    {
      "bufferView": 2,
      "byteOffset": 786384,
      "componentType": 5126,
      "count": 65532,
      "max": [
        0.9999988675117493,
        0.9999988079071045,
        1.0
      ],
      "min": [
        -0.9999675154685974,
        -0.9999989867210388,
        -0.9995430707931519
      ],
      "type": "VEC3"
    },
    {
      "bufferView": 1,
      "componentType": 5126,
      "count": 65532,
      "max": [
        0.9977930188179016,
        0.9717199802398682
      ],
      "min": [
        0.0021180000621825457,
        0.11287699639797211
      ],
      "type": "VEC2"
    },
    {
      "bufferView": 0,
      "componentType": 5125,
      "count": 303357,
      "type": "SCALAR"
    },
    {
      "bufferView": 2,
      "byteOffset": 1572768,
      "componentType": 5126,
      "count": 65532,
      "max": [
        0.6043800115585327,
        0.8687599897384644,
        1.3484100103378296
      ],
      "min": [
        -0.8003799915313721,
        -1.1182399988174438,
        -0.03245000168681145
      ],
      "type": "VEC3"
    },
    {
      "bufferView": 2,
      "byteOffset": 2359152,
      "componentType": 5126,
      "count": 65532,
      "max": [
        0.9999650716781616,
        0.9999988079071045,
        0.9999995231628418
      ],
      "min": [
        -0.9999998211860657,
        -0.9999969601631165,
        -0.8788960576057434
      ],
      "type": "VEC3"
    },
    {
      "bufferView": 1,
      "byteOffset": 524256,
      "componentType": 5126,
      "count": 65532,
      "max": [
        0.6466829776763916,
        0.9916819930076599
      ],
      "min": [
        0.0021569998934865,
        0.2909420132637024
      ],
      "type": "VEC2"
    },
    {
      "bufferView": 0,
      "byteOffset": 1213428,
      "componentType": 5125,
      "count": 359982,
      "type": "SCALAR"
    },
    {
      "bufferView": 2,
      "byteOffset": 3145536,
      "componentType": 5126,
      "count": 65532,
      "max": [
        0.5427500009536743,
        0.8397799730300903,
        1.3470300436019897
      ],
      "min": [
        -0.8000699877738953,
        -1.122789978981018,
        -0.03460000082850456
      ],
      "type": "VEC3"
    },
    {
      "bufferView": 2,
      "byteOffset": 3931920,
      "componentType": 5126,
      "count": 65532,
      "max": [
        0.9999849200248718,
        0.999982476234436,
        1.0
      ],
      "min": [
        -0.9999998807907104,
        -1.0,
        -0.9872119426727295
      ],
      "type": "VEC3"
    },
    {
      "bufferView": 1,
      "byteOffset": 1048512,
      "componentType": 5126,
      "count": 65532,
      "max": [
        0.9976850152015686,
        0.9916430115699768
      ],
      "min": [
        0.0549979992210865,
        0.29190900921821594
      ],
      "type": "VEC2"
    },
    {
      "bufferView": 0,
      "byteOffset": 2653356,
      "componentType": 5125,
      "count": 352209,
      "type": "SCALAR"
    },
    {
      "bufferView": 2,
      "byteOffset": 4718304,
      "componentType": 5126,
      "count": 5444,
      "max": [
        0.3667300045490265,
        0.6948800086975098,
        1.3400800228118896
      ],
      "min": [
        -0.7993500232696533,
        -0.8673400282859802,
        0.021900000050663948
      ],
      "type": "VEC3"
    },
    {
      "bufferView": 2,
      "byteOffset": 4783632,
      "componentType": 5126,
      "count": 5444,
      "max": [
        0.999995231628418,
        0.9792338013648987,
        0.9999693632125854
      ],
      "min": [
        -0.9999401569366455,
        -0.999829888343811,
        -0.8393848538398743
      ],
      "type": "VEC3"
    },
    {
      "bufferView": 1,
      "byteOffset": 1572768,
      "componentType": 5126,
      "count": 5444,
      "max": [
        0.9906929731369019,
        0.6341019868850708
      ],
      "min": [
        0.08824300020933151,
        0.29612401127815247
      ],
      "type": "VEC2"
    },
    {
      "bufferView": 0,
      "byteOffset": 4062192,
      "componentType": 5125,
      "count": 27801,
      "type": "SCALAR"
    }
  ],
  "asset": {
    "extras": {
      "author": "mindlost007 (https://sketchfab.com/mindlost007)",
      "license": "CC-BY-NC-SA-4.0 (http://creativecommons.org/licenses/by-nc-sa/4.0/)",
      "source": "https://sketchfab.com/3d-models/fruit-cart-bcce798914c745ee9b8c2591b3688feb",
      "title": "Fruit cart"
    },
    "generator": "Sketchfab-15.9.0",
    "version": "2.0"
  },
  "bufferViews": [
    {
      "buffer": 0,
      "byteLength": 4173396,
      "name": "floatBufferViews",
      "target": 34963
    },
    {
      "buffer": 0,
      "byteLength": 1616320,
      "byteOffset": 4173396,
      "byteStride": 8,
      "name": "floatBufferViews",
      "target": 34962
    },
    {
      "buffer": 0,
      "byteLength": 4848960,
      "byteOffset": 5789716,
      "byteStride": 12,
      "name": "floatBufferViews",
      "target": 34962
    }
  ],
  "buffers": [
    {
      "byteLength": 10638676,
      "uri": "scene.bin"
    }
  ],
  "extensionsUsed": [
    "KHR_materials_unlit"
  ],
  "images": [
    {
      "uri": "textures/main_baseColor.jpeg"
    }
  ],
  "materials": [
    {
      "doubleSided": true,
      "extensions": {
        "KHR_materials_unlit": {}
      },
      "name": "main",
      "pbrMetallicRoughness": {
        "baseColorTexture": {
          "index": 0
        },
        "metallicFactor": 0.0
      }
    }
  ],
  "meshes": [
    {
      "name": "Object_0",
      "primitives": [
        {
          "attributes": {
            "NORMAL": 1,
            "POSITION": 0,
            "TEXCOORD_0": 2
          },
          "indices": 3,
          "material": 0,
          "mode": 4
        }
      ]
    },
    {
      "name": "Object_1",
      "primitives": [
        {
          "attributes": {
            "NORMAL": 5,
            "POSITION": 4,
            "TEXCOORD_0": 6
          },
          "indices": 7,
          "material": 0,
          "mode": 4
        }
      ]
    },
    {
      "name": "Object_2",
      "primitives": [
        {
          "attributes": {
            "NORMAL": 9,
            "POSITION": 8,
            "TEXCOORD_0": 10
          },
          "indices": 11,
          "material": 0,
          "mode": 4
        }
      ]
    },
    {
      "name": "Object_3",
      "primitives": [
        {
          "attributes": {
            "NORMAL": 13,
            "POSITION": 12,
            "TEXCOORD_0": 14
          },
          "indices": 15,
          "material": 0,
          "mode": 4
        }
      ]
    }
  ],
  "nodes": [
    {
      "children": [
        1
      ],
      "matrix": [
        1.0,
        0.0,
        0.0,
        0.0,
        0.0,
        2.220446049250313e-16,
        -1.0,
        0.0,
        0.0,
        1.0,
        2.220446049250313e-16,
        0.0,
        0.0,
        0.0,
        0.0,
        1.0
      ],
      "name": "Sketchfab_model"
    },
    {
      "children": [
        2,
        3,
        4,
        5
      ],
      "name": "Scaniverse.obj.cleaner.materialmerger.gles"
    },
    {
      "mesh": 0,
      "name": "Object_2"
    },
    {
      "mesh": 1,
      "name": "Object_3"
    },
    {
      "mesh": 2,
      "name": "Object_4"
    },
    {
      "mesh": 3,
      "name": "Object_5"
    }
  ],
  "samplers": [
    {
      "magFilter": 9729,
      "minFilter": 9987,
      "wrapS": 10497,
      "wrapT": 10497
    }
  ],
  "scene": 0,
  "scenes": [
    {
      "name": "Sketchfab_Scene",
      "nodes": [
        0
      ]
    }
  ],
  "textures": [
    {
      "sampler": 0,
      "source": 0
    }
  ]
}
